<svg width="512" height="512" viewBox="0 0 512 512" xmlns="http://www.w3.org/2000/svg">
  <title>Aangan icon teal monochrome</title>
  <rect width="512" height="512" rx="112" fill="#0F6E56"/>
  <g transform="translate(256,256)">
    <g transform="rotate(0,0,0)"><ellipse cx="0" cy="-90" rx="30" ry="90" fill="#ffffff" opacity="0.90"/></g>
    <g transform="rotate(45,0,0)"><ellipse cx="0" cy="-90" rx="30" ry="90" fill="#ffffff" opacity="0.65"/></g>
    <g transform="rotate(90,0,0)"><ellipse cx="0" cy="-90" rx="30" ry="90" fill="#ffffff" opacity="0.90"/></g>
    <g transform="rotate(135,0,0)"><ellipse cx="0" cy="-90" rx="30" ry="90" fill="#ffffff" opacity="0.65"/></g>
    <g transform="rotate(180,0,0)"><ellipse cx="0" cy="-90" rx="30" ry="90" fill="#ffffff" opacity="0.90"/></g>
    <g transform="rotate(225,0,0)"><ellipse cx="0" cy="-90" rx="30" ry="90" fill="#ffffff" opacity="0.65"/></g>
    <g transform="rotate(270,0,0)"><ellipse cx="0" cy="-90" rx="30" ry="90" fill="#ffffff" opacity="0.90"/></g>
    <g transform="rotate(315,0,0)"><ellipse cx="0" cy="-90" rx="30" ry="90" fill="#ffffff" opacity="0.65"/></g>
    <circle cx="0" cy="0" r="52" fill="#0F6E56"/>
    <circle cx="0" cy="0" r="30" fill="#ffffff" opacity="0.95"/>
    <circle cx="0" cy="0" r="20" fill="#E8650A"/>
    <circle cx="0" cy="0" r="8"  fill="#ffffff"/>
    <circle cx="0" cy="0" r="3.5" fill="#E8650A"/>
  </g>
</svg>
