<svg width="512" height="512" viewBox="0 0 512 512" xmlns="http://www.w3.org/2000/svg">
  <title>Aangan app icon – dark variant</title>
  <rect width="512" height="512" rx="112" fill="#0A3D2E"/>

  <circle cx="256" cy="230" r="168" fill="none" stroke="#5DCAA5" stroke-width="4" opacity="0.25"/>
  <circle cx="256" cy="230" r="155" fill="none" stroke="#5DCAA5" stroke-width="1" opacity="0.12"/>

  <path d="M156 370 L156 240 Q156 130 256 130 Q356 130 356 240 L356 370 Z" fill="#5DCAA5" opacity="0.14"/>
  <path d="M178 370 L178 248 Q178 152 256 152 Q334 152 334 248 L334 370 Z" fill="#E8650A" opacity="0.88"/>
  <path d="M205 370 L205 260 Q205 178 256 178 Q307 178 307 260 L307 370 Z" fill="#0A3D2E"/>

  <circle cx="256" cy="302" r="36" fill="#FAEEDA" opacity="0.9"/>
  <circle cx="256" cy="302" r="22" fill="#E8650A"/>
  <circle cx="256" cy="302" r="8"  fill="#ffffff"/>

  <circle cx="256" cy="135" r="9"  fill="#5DCAA5" opacity="0.55"/>
  <circle cx="214" cy="148" r="6"  fill="#5DCAA5" opacity="0.35"/>
  <circle cx="298" cy="148" r="6"  fill="#5DCAA5" opacity="0.35"/>
  <circle cx="180" cy="176" r="4.5" fill="#5DCAA5" opacity="0.22"/>
  <circle cx="332" cy="176" r="4.5" fill="#5DCAA5" opacity="0.22"/>

  <rect x="136" y="364" width="240" height="20" rx="7" fill="#5DCAA5" opacity="0.3"/>
  <rect x="156" y="382" width="200" height="14" rx="5" fill="#042C1E" opacity="0.6"/>

  <rect x="130" y="290" width="26" height="80" rx="6" fill="#5DCAA5" opacity="0.1"/>
  <rect x="356" y="290" width="26" height="80" rx="6" fill="#5DCAA5" opacity="0.1"/>
</svg>
